<svg width="1024" height="1024" viewBox="0 0 1024 1024" fill="none" xmlns="http://www.w3.org/2000/svg">
<rect width="1024" height="1024" fill="#1C1E22"/>
<path fill-rule="evenodd" clip-rule="evenodd" d="M760.889 832V334.908C760.869 334.641 760.818 334.035 760.689 333.137C760.4 331.116 759.741 327.662 758.267 323.241C755.36 314.52 749.183 301.683 735.75 288.25C722.317 274.817 709.48 268.64 700.759 265.733C696.338 264.259 692.884 263.6 690.863 263.311C689.965 263.182 689.359 263.131 689.092 263.111H619.352C619.086 263.131 618.48 263.182 617.582 263.311C615.561 263.6 612.107 264.259 607.686 265.733C598.964 268.64 586.127 274.817 572.694 288.25C559.262 301.683 553.085 314.519 550.177 323.241C548.704 327.662 548.044 331.116 547.755 333.137C547.626 334.044 547.575 334.654 547.556 334.917V689.778H512C547.266 689.778 547.556 689.813 547.556 689.813V690.082C547.555 690.193 547.549 690.316 547.547 690.446C547.543 690.705 547.54 691.001 547.53 691.332C547.508 691.994 547.47 692.799 547.408 693.736C547.283 695.613 547.056 698.034 546.644 700.915C545.822 706.672 544.258 714.332 541.288 723.241C535.307 741.186 523.705 763.906 501.583 786.028C479.462 808.149 456.742 819.751 438.797 825.733C429.887 828.702 422.227 830.266 416.47 831.089C413.59 831.5 411.168 831.727 409.292 831.852C408.354 831.915 407.549 831.953 406.887 831.974C406.556 831.985 406.261 831.987 406.002 831.991C405.872 831.993 405.748 831.999 405.637 832H405.368C405.368 832 405.333 831.743 405.333 796.444V832H192V334.222H227.556C192.282 334.222 192 334.188 192 334.188V333.918C192.001 333.807 192.007 333.684 192.009 333.554C192.013 333.295 192.015 332.999 192.026 332.668C192.047 332.006 192.085 331.201 192.148 330.264C192.273 328.387 192.5 325.966 192.911 323.085C193.734 317.329 195.298 309.668 198.267 300.759C204.249 282.814 215.851 260.094 237.972 237.972C260.094 215.851 282.814 204.249 300.759 198.267C309.668 195.298 317.329 193.734 323.085 192.911C325.966 192.5 328.387 192.273 330.264 192.148C331.201 192.085 332.006 192.047 332.668 192.026C332.999 192.015 333.295 192.013 333.554 192.009C333.684 192.007 333.807 192.001 333.918 192H334.188C334.188 192 334.221 192.258 334.222 223.276V192H405.333V223.276C405.335 192.279 405.368 192 405.368 192H405.637C405.748 192.001 405.872 192.007 406.002 192.009C406.261 192.013 406.556 192.015 406.887 192.026C407.549 192.047 408.354 192.085 409.292 192.148C411.168 192.273 413.59 192.5 416.47 192.911C422.227 193.734 429.887 195.298 438.797 198.267C456.742 204.249 479.462 215.851 501.583 237.972C505.355 241.744 508.816 245.538 512 249.318C515.184 245.538 518.645 241.744 522.417 237.972C544.537 215.851 567.258 204.249 585.203 198.267C594.113 195.298 601.773 193.734 607.53 192.911C610.41 192.5 612.832 192.273 614.708 192.148C615.646 192.085 616.451 192.047 617.113 192.026C617.444 192.015 617.739 192.013 617.998 192.009C618.128 192.007 618.252 192.001 618.363 192H618.632C618.632 192 618.665 192.248 618.667 223.276V192H689.778V223.276C689.779 192.308 689.813 192 689.813 192H690.082C690.193 192.001 690.316 192.007 690.446 192.009C690.705 192.013 691.001 192.015 691.332 192.026C691.994 192.047 692.799 192.085 693.736 192.148C695.613 192.273 698.034 192.5 700.915 192.911C706.672 193.734 714.332 195.298 723.241 198.267C741.186 204.249 763.906 215.851 786.028 237.972C808.149 260.094 819.751 282.814 825.733 300.759C828.702 309.668 830.266 317.329 831.089 323.085C831.5 325.966 831.727 328.387 831.852 330.264C831.915 331.201 831.953 332.006 831.974 332.668C831.985 332.999 831.987 333.295 831.991 333.554C831.993 333.684 831.999 333.807 832 333.918V334.188C832 334.188 831.766 334.222 796.444 334.222H832V796.444L760.889 832ZM333.137 263.311C331.116 263.6 327.662 264.259 323.241 265.733C314.52 268.64 301.683 274.817 288.25 288.25C274.817 301.683 268.64 314.52 265.733 323.241C264.259 327.662 263.6 331.116 263.311 333.137C263.183 334.035 263.131 334.641 263.111 334.908V760.889H404.648C404.914 760.869 405.521 760.818 406.418 760.689C408.439 760.4 411.893 759.741 416.314 758.267C425.036 755.36 437.873 749.183 451.306 735.75C464.738 722.317 470.915 709.48 473.823 700.759C475.297 696.338 475.956 692.884 476.245 690.863C476.374 689.955 476.425 689.345 476.444 689.083V334.908C476.425 334.641 476.373 334.035 476.245 333.137C475.956 331.116 475.297 327.662 473.823 323.241C470.915 314.52 464.738 301.683 451.306 288.25C437.873 274.817 425.036 268.64 416.314 265.733C411.893 264.259 408.439 263.6 406.418 263.311C405.521 263.183 404.914 263.131 404.648 263.111H334.908C334.641 263.131 334.035 263.183 333.137 263.311Z" fill="#28C322"/>
</svg>
